<svg width="12" height="12" viewBox="0 0 12 12" fill="none" xmlns="http://www.w3.org/2000/svg">
<path d="M8.59476 7.86441L8.31061 8.16395C8.31061 8.16395 7.63427 8.87546 5.78885 6.9327C3.94344 4.98995 4.61978 4.27844 4.61978 4.27844L4.79839 4.08932C5.23991 3.62513 5.28175 2.87924 4.89643 2.33436L4.10956 1.22148C3.63243 0.547003 2.71129 0.457734 2.16485 1.03302L1.18437 2.06457C0.913962 2.35023 0.732856 2.71921 0.754713 3.12919C0.810919 4.17859 1.25931 6.43544 3.75983 9.06855C6.41211 11.8603 8.90076 11.9714 9.91808 11.8709C10.2403 11.8392 10.5201 11.6659 10.7456 11.4279L11.6324 10.4942C12.2319 9.86403 12.0633 8.78288 11.2964 8.34183L10.1036 7.65479C9.60021 7.36582 8.9882 7.45046 8.59476 7.86441Z" fill="black"/>
</svg>
