<svg width="10" height="12" viewBox="0 0 10 12" fill="none" xmlns="http://www.w3.org/2000/svg">
<path d="M8.13359 1.67555C6.44518 -0.142583 3.70773 -0.142583 2.01933 1.67555C1.61845 2.10428 1.29992 2.61641 1.08244 3.18184C0.864961 3.74726 0.75293 4.35458 0.75293 4.96808C0.75293 5.58158 0.864961 6.18889 1.08244 6.75432C1.29992 7.31974 1.61845 7.83187 2.01933 8.2606L5.07619 11.5531L8.13359 8.2606C8.53446 7.83187 8.853 7.31974 9.07048 6.75432C9.28796 6.18889 9.39999 5.58158 9.39999 4.96808C9.39999 4.35458 9.28796 3.74726 9.07048 3.18184C8.853 2.61641 8.53446 2.10428 8.13359 1.67555ZM5.07619 6.52411C4.71516 6.52411 4.37629 6.37028 4.12065 6.09103C3.86758 5.8134 3.72545 5.4372 3.72545 5.04499C3.72545 4.65278 3.86758 4.27659 4.12065 3.99896C4.37575 3.7197 4.71516 3.56587 5.07619 3.56587C5.43722 3.56587 5.77663 3.7197 6.03173 3.99896C6.2848 4.27659 6.42693 4.65278 6.42693 5.04499C6.42693 5.4372 6.2848 5.8134 6.03173 6.09103C5.77663 6.37028 5.43722 6.52411 5.07619 6.52411Z" fill="#425763"/>
</svg>
